# xmcd
#
# Track frame offsets: 
#        150
#        16138
#        32526
#        45590
#        62923
#        78263
#        106164
#        121275
#        135946
#
# Disc length: 1954 seconds
#
# Revision: 0
# Processed by: cddbd v1.5.1PL0 Copyright (c) Steve Scherf et al.
# Submitted via: ExactAudioCopy v0.95a5
#
DISCID=6207a009
DTITLE=KANBAYASHI - BROOM DUSTER KAN
DYEAR=2004
DGENRE=Country
TTITLE0=Got To Move
TTITLE1=Dust My Broom
TTITLE2=Summertime
TTITLE3=Stranger Blues
TTITLE4=500miles
TTITLE5=Mr.Bojangles
TTITLE6=That Lucky Old Sun
TTITLE7=Good Bye Baby
TTITLE8=Snake Your Moneymaker
EXTD=
EXTT0=
EXTT1=
EXTT2=
EXTT3=
EXTT4=
EXTT5=
EXTT6=
EXTT7=
EXTT8=
PLAYORDER=
